<svg width="22" height="23" viewBox="0 0 22 23" fill="none" xmlns="http://www.w3.org/2000/svg">
<path d="M3.02734 22.32H18.8983C20.9197 22.32 21.9256 21.2946 21.9256 19.2634V9.33368C21.9256 8.07391 21.7791 7.52704 20.9979 6.72626L15.617 1.24774C14.8748 0.486023 14.2596 0.320007 13.1658 0.320007H3.02734C1.01562 0.320007 0 1.35516 0 3.38641L0 19.2634C0 21.3044 1.00586 22.32 3.02734 22.32ZM3.0957 20.7477C2.08984 20.7477 1.57227 20.2106 1.57227 19.2341V3.41571C1.57227 2.44891 2.08984 1.89227 3.10547 1.89227H12.951V7.5661C12.951 8.79657 13.5662 9.40204 14.7869 9.40204H20.3533V19.2341C20.3533 20.2106 19.8358 20.7477 18.8201 20.7477H3.0957ZM14.9627 7.92743C14.5721 7.92743 14.4256 7.77118 14.4256 7.38055V2.19501L20.0506 7.92743H14.9627Z" fill="#E0E0E0"/>
</svg>
