<svg width="21" height="21" viewBox="0 0 21 21" fill="none" xmlns="http://www.w3.org/2000/svg">
<path d="M0 8.00003C0 6.34317 1.34314 5.00003 3 5.00003H13C14.6569 5.00003 16 6.34317 16 8.00002V18.0001C16 19.6569 14.6569 21.0001 13 21.0001H3C1.34315 21.0001 0 19.6569 0 18.0001V8.00003Z" fill="white"/>
<path fill-rule="evenodd" clip-rule="evenodd" d="M3.47833 1.00006C3.47833 0.51981 3.86764 0.130493 4.34789 0.130493H6.30441C6.78466 0.130493 7.17398 0.51981 7.17398 1.00006C7.17398 1.4803 6.78466 1.86962 6.30441 1.86962H5.21745V2.95658C5.21745 3.43683 4.82814 3.82615 4.34789 3.82615C3.86764 3.82615 3.47833 3.43683 3.47833 2.95658V1.00006ZM9.3479 1.00006C9.3479 0.51981 9.73722 0.130493 10.2175 0.130493H14.1305C14.6108 0.130493 15.0001 0.51981 15.0001 1.00006C15.0001 1.4803 14.6108 1.86962 14.1305 1.86962H10.2175C9.73722 1.86962 9.3479 1.4803 9.3479 1.00006ZM17.174 1.00006C17.174 0.51981 17.5633 0.130493 18.0436 0.130493H20.0001C20.4803 0.130493 20.8697 0.51981 20.8697 1.00006V2.95658C20.8697 3.43683 20.4803 3.82614 20.0001 3.82614C19.5198 3.82614 19.1305 3.43683 19.1305 2.95658V1.86962H18.0436C17.5633 1.86962 17.174 1.4803 17.174 1.00006ZM4.34789 6.00007C4.82814 6.00007 5.21745 6.38938 5.21745 6.86963V10.7827C5.21745 11.2629 4.82814 11.6522 4.34789 11.6522C3.86764 11.6522 3.47833 11.2629 3.47833 10.7827V6.86963C3.47833 6.38938 3.86764 6.00007 4.34789 6.00007ZM20.0001 6.00007C20.4803 6.00007 20.8697 6.38938 20.8697 6.86963V10.7827C20.8697 11.2629 20.4803 11.6522 20.0001 11.6522C19.5198 11.6522 19.1305 11.2629 19.1305 10.7827V6.86963C19.1305 6.38938 19.5198 6.00007 20.0001 6.00007ZM20.0001 13.8262C20.4803 13.8262 20.8697 14.2155 20.8697 14.6957V16.6523C20.8697 17.1325 20.4803 17.5218 20.0001 17.5218H18.0436C17.5633 17.5218 17.174 17.1325 17.174 16.6523C17.174 16.172 17.5633 15.7827 18.0436 15.7827H19.1305V14.6957C19.1305 14.2155 19.5198 13.8262 20.0001 13.8262ZM4.34789 13.8262C4.82814 13.8262 5.21745 14.2155 5.21745 14.6957V15.7827H6.30442C6.78466 15.7827 7.17398 16.172 7.17398 16.6523C7.17398 17.1325 6.78466 17.5218 6.30442 17.5218H4.34789C3.86764 17.5218 3.47833 17.1325 3.47833 16.6523V14.6957C3.47833 14.2155 3.86764 13.8262 4.34789 13.8262ZM9.3479 16.6523C9.3479 16.172 9.73722 15.7827 10.2175 15.7827H14.1305C14.6108 15.7827 15.0001 16.172 15.0001 16.6523C15.0001 17.1325 14.6108 17.5218 14.1305 17.5218H10.2175C9.73722 17.5218 9.3479 17.1325 9.3479 16.6523Z" fill="white"/>
</svg>
