<svg width="28" height="28" viewBox="0 0 28 28" fill="none" xmlns="http://www.w3.org/2000/svg">
<path d="M6.75231 25H21.2477C23.7572 25 25 23.7572 25 21.2955V6.70451C25 4.2428 23.7572 3 21.2477 3H6.75231C4.25475 3 3 4.23085 3 6.70451V21.2955C3 23.7691 4.25475 25 6.75231 25ZM6.77621 23.076C5.58121 23.076 4.92395 22.4427 4.92395 21.1999V6.80011C4.92395 5.55731 5.58121 4.92395 6.77621 4.92395H21.2238C22.4068 4.92395 23.076 5.55731 23.076 6.80011V21.1999C23.076 22.4427 22.4068 23.076 21.2238 23.076H6.77621Z" fill="black"/>
</svg>
