<svg width="23" height="23" viewBox="0 0 23 23" fill="none" xmlns="http://www.w3.org/2000/svg">
<path d="M4.67809 22.32H19.1735C21.683 22.32 22.9258 21.0772 22.9258 18.6155V4.02452C22.9258 1.56281 21.683 0.320007 19.1735 0.320007H4.67809C2.18053 0.320007 0.925781 1.55086 0.925781 4.02452V18.6155C0.925781 21.0892 2.18053 22.32 4.67809 22.32ZM4.70199 20.3961C3.50699 20.3961 2.84974 19.7627 2.84974 18.5199V4.12012C2.84974 2.88926 3.50699 2.24396 4.70199 2.24396H19.1496C20.3326 2.24396 21.0018 2.88926 21.0018 4.12012V18.5199C21.0018 19.7627 20.3326 20.3961 19.1496 20.3961H4.70199Z" fill="#E0E0E0"/>
<path d="M17.9897 7.3429C17.9897 6.9591 17.6786 6.64797 17.2948 6.64797C16.911 6.64797 16.5999 6.9591 16.5999 7.3429V9.73589H14.1738C13.79 9.73589 13.4789 10.047 13.4789 10.4308C13.4789 10.8146 13.79 11.1257 14.1738 11.1257H17.2948C17.6786 11.1257 17.9897 10.8146 17.9897 10.4308V7.3429Z" fill="#E0E0E0" stroke="#E0E0E0" stroke-width="0.3" stroke-linecap="round" stroke-linejoin="round"/>
<path d="M5.85352 11.7945C5.46972 11.7945 5.15859 12.1057 5.15859 12.4895V15.5774C5.15859 15.9612 5.46972 16.2723 5.85352 16.2723C6.23732 16.2723 6.54845 15.9612 6.54845 15.5774V13.1844H8.97447C9.35827 13.1844 9.66939 12.8733 9.66939 12.4895C9.66939 12.1057 9.35827 11.7945 8.97447 11.7945H5.85352Z" fill="#E0E0E0" stroke="#E0E0E0" stroke-width="0.3" stroke-linecap="round" stroke-linejoin="round"/>
<path d="M10.6923 7.62184C12.0304 7.32228 13.4287 7.7235 14.3958 8.68084C14.4009 8.68595 14.4062 8.69098 14.4115 8.69592L16.825 10.9398C17.1061 11.2011 17.5458 11.1851 17.8071 10.904C18.0685 10.6229 18.0524 10.1832 17.7714 9.92191L15.3655 7.68518C14.0603 6.39853 12.1824 5.86399 10.3886 6.26556C8.59083 6.66803 7.12334 7.95603 6.50597 9.68218C6.37673 10.0436 6.56491 10.4413 6.92629 10.5705C7.28767 10.6998 7.6854 10.5116 7.81465 10.1502C8.26973 8.8778 9.35454 7.92131 10.6923 7.62184Z" fill="#E0E0E0" stroke="#E0E0E0" stroke-width="0.3" stroke-linecap="round" stroke-linejoin="round"/>
<path d="M6.3267 11.9805C6.04561 11.7192 5.6059 11.7352 5.34457 12.0163C5.08325 12.2974 5.09926 12.7371 5.38035 12.9984L7.78617 15.2352C9.09139 16.5218 10.9693 17.0563 12.7631 16.6548C14.5609 16.2523 16.0284 14.9643 16.6457 13.2382C16.775 12.8768 16.5868 12.479 16.2254 12.3498C15.864 12.2205 15.4663 12.4087 15.3371 12.7701C14.882 14.0425 13.7972 14.999 12.4594 15.2985C11.1214 15.5981 9.72304 15.1968 8.75595 14.2395C8.75078 14.2344 8.74554 14.2294 8.74023 14.2244L8.6381 14.3343L8.74023 14.2244L6.3267 11.9805Z" fill="#E0E0E0" stroke="#E0E0E0" stroke-width="0.3" stroke-linecap="round" stroke-linejoin="round"/>
</svg>
