<svg width="23" height="24" viewBox="0 0 23 24" fill="none" xmlns="http://www.w3.org/2000/svg">
<path d="M4.22497 23.2109H19.0052C21.564 23.2109 22.8312 21.9436 22.8312 19.4335V4.55584C22.8312 2.04576 21.564 0.778534 19.0052 0.778534H4.22497C1.67834 0.778534 0.398926 2.03357 0.398926 4.55584V19.4335C0.398926 21.9558 1.67834 23.2109 4.22497 23.2109ZM4.24934 21.2491C3.03085 21.2491 2.36069 20.6033 2.36069 19.3361V4.65332C2.36069 3.39828 3.03085 2.7403 4.24934 2.7403H18.9808C20.1871 2.7403 20.8695 3.39828 20.8695 4.65332V19.3361C20.8695 20.6033 20.1871 21.2491 18.9808 21.2491H4.24934Z" fill="#E0E0E0"/>
<path d="M17.7956 7.93942C17.7956 7.54971 17.4797 7.23379 17.09 7.23379C16.7003 7.23379 16.3843 7.54971 16.3843 7.93942V10.3824H13.9077C13.518 10.3824 13.2021 10.6983 13.2021 11.088C13.2021 11.4777 13.518 11.7937 13.9077 11.7937H17.09C17.4797 11.7937 17.7956 11.4777 17.7956 11.088V7.93942Z" fill="#E0E0E0" stroke="#E0E0E0" stroke-width="0.3" stroke-linecap="round" stroke-linejoin="round"/>
<path d="M5.42331 12.4815C5.0336 12.4815 4.71768 12.7974 4.71768 13.1871V16.3357C4.71768 16.7254 5.0336 17.0414 5.42331 17.0414C5.81302 17.0414 6.12895 16.7254 6.12895 16.3357V13.8928H8.60559C8.9953 13.8928 9.31122 13.5768 9.31122 13.1871C9.31122 12.7974 8.9953 12.4815 8.60559 12.4815H5.42331Z" fill="#E0E0E0" stroke="#E0E0E0" stroke-width="0.3" stroke-linecap="round" stroke-linejoin="round"/>
<path d="M10.3562 8.22096C11.7216 7.9153 13.1484 8.32468 14.1352 9.30154L14.1512 9.31686L16.6121 11.6048C16.8975 11.8702 17.344 11.8539 17.6094 11.5685C17.8747 11.2831 17.8585 10.8366 17.5731 10.5713L15.1199 8.29055C13.7898 6.9793 11.8759 6.43453 10.0479 6.84377C8.21575 7.25394 6.72022 8.56654 6.09107 10.3257C5.95983 10.6926 6.15091 11.0965 6.51786 11.2277C6.88481 11.3589 7.28867 11.1679 7.41991 10.8009C7.88429 9.50252 8.99122 8.52653 10.3562 8.22096Z" fill="#E0E0E0" stroke="#E0E0E0" stroke-width="0.3" stroke-linecap="round" stroke-linejoin="round"/>
<path d="M8.36474 14.9583L8.36474 14.9583L5.90378 12.6703C5.61836 12.405 5.17188 12.4213 4.90652 12.7067C4.64117 12.9921 4.65743 13.4386 4.94285 13.7039L7.39599 15.9846C8.72614 17.2959 10.64 17.8407 12.468 17.4314C14.3002 17.0213 15.7957 15.7086 16.4248 13.9495C16.5561 13.5826 16.365 13.1787 15.998 13.0475C15.6311 12.9162 15.2272 13.1073 15.096 13.4743C14.6316 14.7727 13.5247 15.7487 12.1597 16.0542C10.7943 16.3599 9.36752 15.9505 8.3807 14.9736L8.3807 14.9736C8.37546 14.9685 8.37014 14.9633 8.36474 14.9583Z" fill="#E0E0E0" stroke="#E0E0E0" stroke-width="0.3" stroke-linecap="round" stroke-linejoin="round"/>
</svg>
