<svg width="29" height="23" viewBox="0 0 29 23" fill="none" xmlns="http://www.w3.org/2000/svg">
<path d="M3.83301 22.4731H24.9512C27.5146 22.4731 28.7842 21.2036 28.7842 18.689V3.78418C28.7842 1.26953 27.5146 0 24.9512 0H3.83301C1.28174 0 0 1.25732 0 3.78418V18.689C0 21.2158 1.28174 22.4731 3.83301 22.4731ZM3.85742 20.5078C2.63672 20.5078 1.96533 19.8608 1.96533 18.5913V3.88184C1.96533 2.6123 2.63672 1.96533 3.85742 1.96533H9.30176V20.5078H3.85742ZM24.9268 1.96533C26.1353 1.96533 26.8188 2.6123 26.8188 3.88184V18.5913C26.8188 19.8608 26.1353 20.5078 24.9268 20.5078H11.2183V1.96533H24.9268ZM6.95801 6.49414C7.32422 6.49414 7.65381 6.16455 7.65381 5.81055C7.65381 5.44434 7.32422 5.12695 6.95801 5.12695H4.3335C3.96729 5.12695 3.6499 5.44434 3.6499 5.81055C3.6499 6.16455 3.96729 6.49414 4.3335 6.49414H6.95801ZM6.95801 9.65576C7.32422 9.65576 7.65381 9.32617 7.65381 8.95996C7.65381 8.59375 7.32422 8.28857 6.95801 8.28857H4.3335C3.96729 8.28857 3.6499 8.59375 3.6499 8.95996C3.6499 9.32617 3.96729 9.65576 4.3335 9.65576H6.95801ZM6.95801 12.8052C7.32422 12.8052 7.65381 12.5 7.65381 12.1338C7.65381 11.7676 7.32422 11.4502 6.95801 11.4502H4.3335C3.96729 11.4502 3.6499 11.7676 3.6499 12.1338C3.6499 12.5 3.96729 12.8052 4.3335 12.8052H6.95801Z" fill="black"/>
</svg>
