<svg width="23" height="23" viewBox="0 0 23 23" fill="none" xmlns="http://www.w3.org/2000/svg">
<path d="M4.67809 22.32H19.1735C21.683 22.32 22.9258 21.0772 22.9258 18.6155V4.02452C22.9258 1.56281 21.683 0.320007 19.1735 0.320007H4.67809C2.18053 0.320007 0.925781 1.55086 0.925781 4.02452V18.6155C0.925781 21.0892 2.18053 22.32 4.67809 22.32ZM4.70199 20.3961C3.50699 20.3961 2.84974 19.7627 2.84974 18.5199V4.12012C2.84974 2.88926 3.50699 2.24396 4.70199 2.24396H19.1496C20.3326 2.24396 21.0018 2.88926 21.0018 4.12012V18.5199C21.0018 19.7627 20.3326 20.3961 19.1496 20.3961H4.70199ZM18.1099 12.76C18.1099 9.89198 16.0306 8.14727 13.2463 8.14727H9.6732L8.2631 8.19508L9.20715 7.44222L10.438 6.24722C10.6053 6.10382 10.7129 5.87677 10.7129 5.63777C10.7129 5.13587 10.3424 4.76542 9.85245 4.76542C9.6015 4.76542 9.4103 4.84907 9.243 5.02832L6.06429 8.24288C5.87309 8.44603 5.75359 8.69698 5.75359 8.98378C5.75359 9.25863 5.87309 9.49763 6.06429 9.70078L9.25495 12.9631C9.42225 13.1304 9.61345 13.2021 9.8644 13.2021C10.3424 13.2021 10.7129 12.8317 10.7129 12.3417C10.7129 12.1147 10.6292 11.8757 10.45 11.7203L8.9562 10.2863L8.2631 9.77248L9.6732 9.82028H13.2463C15.0029 9.82028 16.3533 10.8241 16.3533 12.6644C16.3533 14.5525 15.0388 15.7116 13.2343 15.7116H11.5733C11.0594 15.7116 10.6651 16.0223 10.6651 16.572C10.6651 17.1217 11.0594 17.4205 11.5972 17.4205H13.2343C16.0187 17.4205 18.1099 15.6399 18.1099 12.76Z" fill="#E0E0E0"/>
</svg>
