<svg width="27" height="27" viewBox="0 0 27 27" fill="none" xmlns="http://www.w3.org/2000/svg">
<path fill-rule="evenodd" clip-rule="evenodd" d="M0.292893 26.6129C-0.0976311 26.2224 -0.0976311 25.5892 0.292893 25.1987L2.56261 22.929C2.18777 22.3433 2 21.5724 2 20.6155V6.02452C2 3.55086 3.25475 2.32001 5.75231 2.32001H20.2477C21.226 2.32001 22.0117 2.50887 22.6064 2.88516L24.8787 0.6129C25.2692 0.222376 25.9024 0.222376 26.2929 0.6129C26.6834 1.00342 26.6834 1.63659 26.2929 2.02711L23.802 4.51803C23.8022 4.51877 23.8024 4.51952 23.8027 4.52026L22.076 6.24574V6.24396L19.3591 8.96095L1.61031 26.6981C1.21811 27.001 0.652584 26.9726 0.292893 26.6129ZM6.81931 24.32H20.2477C22.7572 24.32 24 23.0772 24 20.6155V7.15055L22.076 9.07324V20.5199C22.076 21.7627 21.4068 22.3961 20.2238 22.3961H8.74452L6.81931 24.32ZM4.07469 21.4169L21.0975 4.39409C20.8493 4.29418 20.5569 4.24396 20.2238 4.24396H5.77621C4.58121 4.24396 3.92395 4.87731 3.92395 6.12012V20.5199C3.92395 20.8665 3.97506 21.1656 4.07469 21.4169Z" fill="#E0E0E0"/>
</svg>
