<svg width="22" height="23" viewBox="0 0 22 23" fill="none" xmlns="http://www.w3.org/2000/svg">
<path d="M3.02734 22.9947H18.8983C20.9197 22.9947 21.9256 21.9693 21.9256 19.938V10.0084C21.9256 8.7486 21.7791 8.20172 20.9979 7.40094L15.617 1.92242C14.8748 1.16071 14.2596 0.99469 13.1658 0.99469H3.02734C1.01562 0.99469 0 2.02985 0 4.0611L0 19.938C0 21.9791 1.00586 22.9947 3.02734 22.9947ZM3.0957 21.4224C2.08984 21.4224 1.57227 20.8853 1.57227 19.9088V4.09039C1.57227 3.1236 2.08984 2.56696 3.10547 2.56696H12.951V8.24078C12.951 9.47125 13.5662 10.0767 14.7869 10.0767H20.3533V19.9088C20.3533 20.8853 19.8358 21.4224 18.8201 21.4224H3.0957ZM14.9627 8.60211C14.5721 8.60211 14.4256 8.44586 14.4256 8.05524V2.86969L20.0506 8.60211H14.9627Z" fill="#E0E0E0"/>
</svg>
