<svg width="27" height="27" viewBox="0 0 27 27" fill="none" xmlns="http://www.w3.org/2000/svg">
<path d="M5.079 5.74517V4.96485C4.64805 4.96485 4.29869 5.31421 4.29868 5.74516L5.079 5.74517ZM7.22769 5.1811L8.00091 5.07609L7.99855 5.05874L7.99542 5.04151L7.22769 5.1811ZM2.21784 3.92442L1.4845 3.65776C1.47823 3.67499 1.47258 3.69243 1.46754 3.71006L2.21784 3.92442ZM3.25824 21.8718L2.5603 22.2207L2.56999 22.2401L2.58074 22.2589L3.25824 21.8718ZM7.22769 23.6925L7.70246 24.3118L7.70246 24.3118L7.22769 23.6925ZM5.5992 21.3515L4.85892 21.5983C4.96513 21.9169 5.26332 22.1319 5.5992 22.1319V21.3515ZM6.54544 20.2681L6.52113 21.048L6.54544 20.2681ZM22.5061 20.2681L22.5704 19.4904L22.5061 19.4878V20.2681ZM22.5061 24.1054L22.3485 23.3412L22.5061 24.1054ZM3.77845 6.7873L3.7179 7.56526L3.77845 6.7873ZM7.22769 6.86191L8.00275 6.95235L7.22769 6.86191ZM4.29867 2.30707L4.28083 3.08718L4.29867 2.30707ZM8.11348 21.3515L8.81952 21.0193L8.11348 21.3515ZM23.3131 4.46273L24.0582 4.23095L23.3131 4.46273ZM6.56975 19.4882C6.17425 19.4758 5.66436 19.5841 5.27393 19.9186C5.06703 20.0958 4.89121 20.341 4.80968 20.6543C4.72859 20.9661 4.75553 21.2881 4.85892 21.5983L6.33947 21.1048C6.31281 21.0248 6.32861 21.0144 6.32005 21.0473C6.31634 21.0615 6.30991 21.0758 6.3021 21.0878C6.2947 21.0991 6.28894 21.104 6.28923 21.1038C6.29216 21.1013 6.31541 21.084 6.36739 21.0684C6.41837 21.0532 6.47432 21.0466 6.52113 21.048L6.56975 19.4882ZM2.58074 22.2589C2.99849 22.99 3.51171 23.6373 4.09523 24.107C4.67659 24.575 5.37454 24.9019 6.13619 24.8856L6.10263 23.3253C5.82101 23.3313 5.47097 23.211 5.07386 22.8913C4.67892 22.5734 4.28319 22.0926 3.93575 21.4846L2.58074 22.2589ZM6.13619 24.8856C6.69134 24.8736 7.22336 24.6791 7.70246 24.3118L6.75292 23.0732C6.51402 23.2564 6.29798 23.3211 6.10263 23.3253L6.13619 24.8856ZM22.3485 23.3412C22.3948 23.3316 22.3849 23.3372 22.2203 23.3433C22.0922 23.3481 21.9138 23.3524 21.6892 23.356C21.2411 23.3633 20.6248 23.3679 19.8924 23.3704C18.4283 23.3754 16.511 23.372 14.5706 23.3653C10.696 23.3519 6.72037 23.3251 6.11941 23.3251V24.8857C6.71906 24.8857 10.6767 24.9125 14.5652 24.926C16.5064 24.9327 18.4281 24.936 19.8977 24.931C20.6321 24.9285 21.2563 24.9239 21.7145 24.9164C21.9431 24.9127 22.1343 24.9083 22.2788 24.9029C22.3868 24.8988 22.5523 24.8926 22.6637 24.8696L22.3485 23.3412ZM6.45447 5.28611C6.47607 5.4452 6.48988 5.60807 6.49619 5.77473L8.05571 5.71561C8.04759 5.50143 8.0297 5.2881 8.00091 5.07609L6.45447 5.28611ZM5.079 6.52549H7.27595V4.96485H5.079V6.52549ZM4.29868 5.74516C4.29868 5.81905 4.28384 5.85818 4.27456 5.87658C4.26517 5.89516 4.2509 5.91351 4.22467 5.93254C4.16585 5.97522 4.03604 6.02467 3.83901 6.00933L3.7179 7.56526C4.1987 7.60269 4.71916 7.5019 5.14115 7.19574C5.58762 6.87182 5.85931 6.36132 5.85932 5.74518L4.29868 5.74516ZM3.83901 6.00933C3.55561 5.98727 3.25562 5.83894 3.06905 5.57282C2.89645 5.32664 2.75538 4.88344 2.96813 4.13879L1.46754 3.71006C1.15177 4.81527 1.29789 5.76513 1.79118 6.46872C2.27049 7.15238 3.01508 7.51056 3.7179 7.56526L3.83901 6.00933ZM6.49619 5.77473C6.50829 6.09374 6.49293 6.42608 6.45263 6.77147L8.00275 6.95235C8.05105 6.5384 8.07124 6.12517 8.05571 5.71561L6.49619 5.77473ZM6.45263 6.77147C6.31794 7.92571 5.91059 9.18311 5.37364 10.5134C4.83097 11.8579 4.2006 13.1751 3.60694 14.5438C3.02785 15.879 2.4995 17.2307 2.24344 18.5058C1.98708 19.7824 1.98523 21.0706 2.5603 22.2207L3.95618 21.5228C3.59804 20.8065 3.55236 19.9144 3.77353 18.813C3.995 17.7102 4.46555 16.4863 5.03872 15.1648C5.59732 13.8768 6.27256 12.456 6.82084 11.0976C7.37485 9.72497 7.8438 8.31454 8.00275 6.95235L6.45263 6.77147ZM3.76158 7.56743L7.21081 7.64205L7.24456 6.08178L3.79533 6.00716L3.76158 7.56743ZM2.95118 4.19109C3.26885 3.31747 3.80001 3.07619 4.28083 3.08718L4.3165 1.52695C3.09358 1.49899 2.00496 2.22646 1.4845 3.65776L2.95118 4.19109ZM4.28083 3.08718C5.11422 3.10623 6.20432 3.91467 6.45995 5.32069L7.99542 5.04151C7.62971 3.03012 6.00917 1.56565 4.3165 1.52695L4.28083 3.08718ZM4.29867 2.30707C4.35261 3.08552 4.35258 3.08552 4.35259 3.08552C4.35263 3.08552 4.35267 3.08552 4.35275 3.08551C4.35293 3.0855 4.35322 3.08548 4.35364 3.08545C4.35449 3.08539 4.35582 3.0853 4.35765 3.08517C4.36131 3.08492 4.36694 3.08454 4.37449 3.08404C4.38961 3.08303 4.41246 3.08152 4.44279 3.07956C4.50345 3.07566 4.59402 3.06998 4.71246 3.06297C4.94934 3.04895 5.29766 3.02961 5.74106 3.0085C6.62798 2.96628 7.89473 2.917 9.4107 2.889C12.4454 2.83295 16.4666 2.86242 20.4344 3.20169L20.5674 1.64673C16.5259 1.30115 12.446 1.27204 9.38188 1.32863C7.84846 1.35695 6.56639 1.4068 5.66685 1.44963C5.21702 1.47104 4.86269 1.49071 4.62024 1.50506C4.49901 1.51223 4.40574 1.51808 4.34248 1.52215C4.31084 1.52419 4.28671 1.52579 4.27033 1.52688C4.26215 1.52743 4.2559 1.52785 4.25162 1.52814C4.24948 1.52829 4.24783 1.5284 4.24668 1.52848C4.24611 1.52852 4.24566 1.52855 4.24533 1.52857C4.24517 1.52858 4.24502 1.5286 4.24493 1.5286C4.24481 1.52861 4.24473 1.52862 4.29867 2.30707ZM6.54544 21.0484H20.6854V19.4878H6.54544V21.0484ZM20.6854 21.0484H22.5061V19.4878H20.6854V21.0484ZM22.568 4.69451C23.6148 8.05955 23.5398 13.9663 20.0154 19.868L21.3553 20.6682C25.1005 14.3968 25.2405 8.03165 24.0582 4.23095L22.568 4.69451ZM22.4418 21.0458C22.3948 21.0419 22.4583 21.0227 22.5596 21.1848C22.6591 21.3442 22.7662 21.6467 22.7662 22.1319H24.3268C24.3268 21.4311 24.1738 20.8233 23.8832 20.358C23.5943 19.8955 23.1377 19.5373 22.5704 19.4904L22.4418 21.0458ZM22.7662 22.1319C22.7662 22.7872 22.6097 23.0843 22.5164 23.2054C22.4219 23.3281 22.3363 23.3437 22.3485 23.3412L22.6637 24.8696C22.9648 24.8075 23.3993 24.6167 23.7529 24.1576C24.1076 23.6971 24.3268 23.0372 24.3268 22.1319H22.7662ZM7.70246 24.3118C8.33325 23.8282 8.7508 23.2815 8.93577 22.6878C9.1237 22.0846 9.04824 21.5053 8.81952 21.0193L7.40744 21.6838C7.48532 21.8493 7.50724 22.0263 7.44578 22.2236C7.38134 22.4304 7.2027 22.7284 6.75292 23.0732L7.70246 24.3118ZM8.81952 21.0193C8.40338 20.135 7.4582 19.5159 6.56975 19.4882L6.52113 21.048C6.79645 21.0566 7.22978 21.3063 7.40744 21.6838L8.81952 21.0193ZM5.5992 22.1319H8.11348V20.5712H5.5992V22.1319ZM20.4344 3.20169C21.481 3.29118 22.3095 3.86345 22.568 4.69451L24.0582 4.23095C23.5606 2.6313 22.0572 1.77412 20.5674 1.64673L20.4344 3.20169Z" fill="black"/>
<path d="M14.8261 15.6117V7.80847M14.8261 7.80847L18.2075 11.4099M14.8261 7.80847L11.4447 11.4099" stroke="black" stroke-width="1.56064" stroke-linecap="round" stroke-linejoin="round"/>
</svg>
