<svg width="28" height="29" viewBox="0 0 28 29" fill="none" xmlns="http://www.w3.org/2000/svg">
<path d="M8.0625 14.5731C8.21875 14.5471 8.375 14.5275 8.53125 14.5145C8.6875 14.495 8.84701 14.4852 9.00977 14.4852C9.17253 14.4852 9.33529 14.495 9.49805 14.5145C9.66081 14.5275 9.82357 14.5471 9.98633 14.5731V6.3407C9.98633 5.89148 10.1035 5.54317 10.3379 5.29578C10.5723 5.04838 10.9271 4.92468 11.4023 4.92468H15.5625V10.2762C15.5625 10.9729 15.7318 11.4937 16.0703 11.8387C16.4154 12.1838 16.9362 12.3563 17.6328 12.3563H22.8965V20.8329C22.8965 21.2821 22.7793 21.6272 22.5449 21.868C22.3105 22.1089 21.9557 22.2294 21.4805 22.2294H15.25C15.1914 22.5744 15.1003 22.9065 14.9766 23.2255C14.8594 23.551 14.7096 23.8602 14.5273 24.1532H21.6367C22.6849 24.1532 23.4759 23.8798 24.0098 23.3329C24.5436 22.7925 24.8105 21.9983 24.8105 20.9501V12.0927C24.8105 11.6369 24.7845 11.2528 24.7324 10.9403C24.6803 10.6213 24.5794 10.3316 24.4297 10.0712C24.2865 9.80424 24.0716 9.52755 23.7852 9.24109L18.668 4.03601C18.3945 3.75606 18.1276 3.54447 17.8672 3.40125C17.6068 3.25151 17.3236 3.15059 17.0176 3.09851C16.7116 3.03992 16.3535 3.01062 15.9434 3.01062H11.2363C10.1882 3.01062 9.39714 3.28406 8.86328 3.83093C8.32943 4.3713 8.0625 5.16557 8.0625 6.21375V14.5731ZM17.252 10.0907V5.18835L22.6328 10.6669H17.8184C17.6165 10.6669 17.4701 10.6213 17.3789 10.5302C17.2943 10.439 17.252 10.2925 17.252 10.0907ZM9.0293 25.9403C9.70638 25.9403 10.3477 25.8068 10.9531 25.5399C11.5651 25.2795 12.1022 24.9182 12.5645 24.4559C13.0332 23.9937 13.3978 23.4566 13.6582 22.8446C13.9251 22.2391 14.0586 21.5946 14.0586 20.911C14.0586 20.2209 13.9251 19.5731 13.6582 18.9677C13.3978 18.3557 13.0365 17.8186 12.5742 17.3563C12.112 16.8941 11.5781 16.5328 10.9727 16.2723C10.3672 16.0119 9.7194 15.8817 9.0293 15.8817C8.33919 15.8817 7.69141 16.0119 7.08594 16.2723C6.48047 16.5328 5.94661 16.8973 5.48438 17.3661C5.02214 17.8283 4.66081 18.3622 4.40039 18.9677C4.13346 19.5731 4 20.2209 4 20.911C4 21.6011 4.13346 22.2489 4.40039 22.8544C4.66081 23.4598 5.02214 23.9937 5.48438 24.4559C5.94661 24.9247 6.48047 25.2893 7.08594 25.5497C7.69141 25.8101 8.33919 25.9403 9.0293 25.9403ZM6.30469 21.7216C6.08984 21.7216 5.90104 21.6402 5.73828 21.4774C5.58203 21.3212 5.50391 21.1324 5.50391 20.911C5.50391 20.6897 5.58203 20.4976 5.73828 20.3348C5.90104 20.1721 6.08984 20.0907 6.30469 20.0907C6.53255 20.0907 6.72786 20.1721 6.89062 20.3348C7.05339 20.4976 7.13477 20.6897 7.13477 20.911C7.13477 21.1324 7.05339 21.3212 6.89062 21.4774C6.72786 21.6402 6.53255 21.7216 6.30469 21.7216ZM9.0293 21.7216C8.80794 21.7216 8.61589 21.6402 8.45312 21.4774C8.29036 21.3212 8.20898 21.1324 8.20898 20.911C8.20898 20.6897 8.29036 20.4976 8.45312 20.3348C8.61589 20.1721 8.80794 20.0907 9.0293 20.0907C9.25065 20.0907 9.44271 20.1721 9.60547 20.3348C9.76823 20.4976 9.84961 20.6897 9.84961 20.911C9.84961 21.1324 9.76823 21.3212 9.60547 21.4774C9.44271 21.6402 9.25065 21.7216 9.0293 21.7216ZM11.7344 21.7313C11.5 21.7313 11.3047 21.6499 11.1484 21.4872C10.9922 21.3244 10.9141 21.1324 10.9141 20.911C10.9141 20.6897 10.9922 20.4976 11.1484 20.3348C11.3047 20.1721 11.5 20.0907 11.7344 20.0907C11.9557 20.0907 12.1445 20.1721 12.3008 20.3348C12.4635 20.4976 12.5449 20.6897 12.5449 20.911C12.5449 21.1324 12.4635 21.3244 12.3008 21.4872C12.138 21.6499 11.9492 21.7313 11.7344 21.7313Z" fill="black"/>
</svg>
