<svg width="25" height="25" viewBox="0 0 25 25" fill="none" xmlns="http://www.w3.org/2000/svg">
<path d="M12.0508 24.4922C13.6836 24.4922 15.2188 24.1797 16.6562 23.5547C18.1016 22.9297 19.375 22.0664 20.4766 20.9648C21.5781 19.8633 22.4414 18.5938 23.0664 17.1562C23.6914 15.7109 24.0039 14.1719 24.0039 12.5391C24.0039 10.9062 23.6914 9.37109 23.0664 7.93359C22.4414 6.48828 21.5781 5.21484 20.4766 4.11328C19.375 3.01172 18.1016 2.14844 16.6562 1.52344C15.2109 0.898438 13.6719 0.585938 12.0391 0.585938C10.4062 0.585938 8.86719 0.898438 7.42188 1.52344C5.98438 2.14844 4.71484 3.01172 3.61328 4.11328C2.51953 5.21484 1.66016 6.48828 1.03516 7.93359C0.410156 9.37109 0.0976562 10.9062 0.0976562 12.5391C0.0976562 14.1719 0.410156 15.7109 1.03516 17.1562C1.66016 18.5938 2.52344 19.8633 3.625 20.9648C4.72656 22.0664 5.99609 22.9297 7.43359 23.5547C8.87891 24.1797 10.418 24.4922 12.0508 24.4922ZM12.0508 22.5C10.668 22.5 9.375 22.2422 8.17188 21.7266C6.96875 21.2109 5.91016 20.5 4.99609 19.5938C4.08984 18.6797 3.37891 17.6211 2.86328 16.418C2.35547 15.2148 2.10156 13.9219 2.10156 12.5391C2.10156 11.1562 2.35547 9.86328 2.86328 8.66016C3.37891 7.45703 4.08984 6.39844 4.99609 5.48438C5.90234 4.57031 6.95703 3.85937 8.16016 3.35156C9.36328 2.83594 10.6562 2.57812 12.0391 2.57812C13.4219 2.57812 14.7148 2.83594 15.918 3.35156C17.1289 3.85937 18.1875 4.57031 19.0938 5.48438C20.0078 6.39844 20.7227 7.45703 21.2383 8.66016C21.7539 9.86328 22.0117 11.1562 22.0117 12.5391C22.0117 13.9219 21.7539 15.2148 21.2383 16.418C20.7305 17.6211 20.0195 18.6797 19.1055 19.5938C18.1914 20.5 17.1328 21.2109 15.9297 21.7266C14.7266 22.2422 13.4336 22.5 12.0508 22.5ZM6.57812 14.2383C7.04688 14.2383 7.44531 14.0703 7.77344 13.7344C8.10938 13.3984 8.27734 12.9961 8.27734 12.5273C8.27734 12.0586 8.10938 11.6562 7.77344 11.3203C7.4375 10.9844 7.03906 10.8164 6.57812 10.8164C6.10156 10.8164 5.69531 10.9844 5.35938 11.3203C5.03125 11.6562 4.86719 12.0586 4.86719 12.5273C4.86719 12.9961 5.03125 13.3984 5.35938 13.7344C5.69531 14.0703 6.10156 14.2383 6.57812 14.2383ZM12.0391 14.2383C12.5078 14.2383 12.9102 14.0703 13.2461 13.7344C13.582 13.3984 13.75 12.9961 13.75 12.5273C13.75 12.0586 13.582 11.6562 13.2461 11.3203C12.9102 10.9844 12.5078 10.8164 12.0391 10.8164C11.5703 10.8164 11.168 10.9844 10.832 11.3203C10.5039 11.6562 10.3398 12.0586 10.3398 12.5273C10.3398 12.9961 10.5039 13.3984 10.832 13.7344C11.168 14.0703 11.5703 14.2383 12.0391 14.2383ZM17.5117 14.2383C17.9805 14.2383 18.3789 14.0703 18.707 13.7344C19.043 13.3984 19.2109 12.9961 19.2109 12.5273C19.2109 12.0586 19.043 11.6562 18.707 11.3203C18.3789 10.9844 17.9805 10.8164 17.5117 10.8164C17.043 10.8164 16.6406 10.9844 16.3047 11.3203C15.9688 11.6562 15.8008 12.0586 15.8008 12.5273C15.8008 12.9961 15.9688 13.3984 16.3047 13.7344C16.6406 14.0703 17.043 14.2383 17.5117 14.2383Z" fill="white"/>
</svg>
