<svg width="23" height="23" viewBox="0 0 23 23" fill="none" xmlns="http://www.w3.org/2000/svg">
<path d="M4.67809 22.32H19.1735C21.683 22.32 22.9258 21.0772 22.9258 18.6155V4.02452C22.9258 1.56281 21.683 0.320007 19.1735 0.320007H4.67809C2.18053 0.320007 0.925781 1.55086 0.925781 4.02452V18.6155C0.925781 21.0892 2.18053 22.32 4.67809 22.32ZM4.70199 20.3961C3.50699 20.3961 2.84974 19.7627 2.84974 18.5199V4.12012C2.84974 2.88926 3.50699 2.24396 4.70199 2.24396H19.1496C20.3326 2.24396 21.0018 2.88926 21.0018 4.12012V18.5199C21.0018 19.7627 20.3326 20.3961 19.1496 20.3961H4.70199ZM5.75359 12.76C5.75359 15.6399 7.8329 17.4205 10.6173 17.4205H12.2544C12.7922 17.4205 13.1865 17.1217 13.1865 16.572C13.1865 16.0223 12.7922 15.7116 12.2783 15.7116H10.6173C8.8128 15.7116 7.51025 14.5525 7.51025 12.6644C7.51025 10.8241 8.84865 9.82028 10.6053 9.82028H14.1784L15.5885 9.77248L14.8954 10.2863L13.4016 11.7203C13.2224 11.8757 13.1387 12.1147 13.1387 12.3417C13.1387 12.8317 13.5092 13.2141 13.9872 13.2141C14.2381 13.2141 14.4293 13.1304 14.5966 12.9631L17.7873 9.70078C17.9904 9.49763 18.1099 9.25863 18.1099 8.98378C18.1099 8.69698 17.9904 8.44603 17.7873 8.24288L14.6086 5.02832C14.4413 4.84907 14.2501 4.76542 13.9991 4.76542C13.5092 4.76542 13.1387 5.13587 13.1387 5.63777C13.1387 5.87677 13.2463 6.10382 13.4136 6.24722L14.6444 7.44222L15.5885 8.19508L14.1784 8.14727H10.6053C7.82095 8.14727 5.75359 9.89198 5.75359 12.76Z" fill="#E0E0E0"/>
</svg>
