<svg width="20" height="20" viewBox="0 0 20 20" fill="none" xmlns="http://www.w3.org/2000/svg">
<path d="M0.315874 19.0384C0.74312 19.4534 1.45113 19.4534 1.86617 19.0384L9.67867 11.2259L17.4912 19.0384C17.9062 19.4534 18.6264 19.4657 19.0415 19.0384C19.4565 18.6112 19.4565 17.9154 19.0415 17.5003L11.229 9.67561L19.0415 1.86311C19.4565 1.44808 19.4687 0.740067 19.0415 0.325028C18.6142 -0.102218 17.9062 -0.102218 17.4912 0.325028L9.67867 8.13753L1.86617 0.325028C1.45113 -0.102218 0.730913 -0.114425 0.315874 0.325028C-0.0991656 0.752274 -0.0991656 1.44808 0.315874 1.86311L8.12837 9.67561L0.315874 17.5003C-0.0991656 17.9154 -0.111373 18.6234 0.315874 19.0384Z" fill="black"/>
</svg>
