<svg width="23" height="23" viewBox="0 0 23 23" fill="none" xmlns="http://www.w3.org/2000/svg">
<path d="M4.67809 22.32H19.1735C21.683 22.32 22.9258 21.0772 22.9258 18.6155V4.02452C22.9258 1.56281 21.683 0.320007 19.1735 0.320007H4.67809C2.18053 0.320007 0.925781 1.55086 0.925781 4.02452V18.6155C0.925781 21.0892 2.18053 22.32 4.67809 22.32ZM4.70199 20.3961C3.50699 20.3961 2.84974 19.7627 2.84974 18.5199V4.12012C2.84974 2.87731 3.50699 2.24396 4.70199 2.24396H19.1496C20.3326 2.24396 21.0018 2.87731 21.0018 4.12012V18.5199C21.0018 19.7627 20.3326 20.3961 19.1496 20.3961H4.70199ZM6.66179 11.314C6.66179 11.8996 7.08005 12.2939 7.6895 12.2939H10.928V15.5563C10.928 16.1538 11.3343 16.5601 11.9198 16.5601C12.5173 16.5601 12.9356 16.1538 12.9356 15.5563V12.2939H16.186C16.7835 12.2939 17.2017 11.8996 17.2017 11.314C17.2017 10.7165 16.7954 10.2983 16.186 10.2983H12.9356V7.05982C12.9356 6.43842 12.5173 6.03212 11.9198 6.03212C11.3343 6.03212 10.928 6.45037 10.928 7.05982V10.2983H7.6895C7.08005 10.2983 6.66179 10.7165 6.66179 11.314Z" fill="#E0E0E0"/>
</svg>
