<svg width="23" height="23" viewBox="0 0 23 23" fill="none" xmlns="http://www.w3.org/2000/svg">
<path d="M4.67809 22.32H19.1735C21.683 22.32 22.9258 21.0772 22.9258 18.6155V4.02452C22.9258 1.56281 21.683 0.320007 19.1735 0.320007H4.67809C2.18053 0.320007 0.925781 1.55086 0.925781 4.02452V18.6155C0.925781 21.0892 2.18053 22.32 4.67809 22.32ZM4.70199 20.3961C3.50699 20.3961 2.84974 19.7627 2.84974 18.5199V4.12012C2.84974 2.87731 3.50699 2.24396 4.70199 2.24396H19.1496C20.3326 2.24396 21.0018 2.87731 21.0018 4.12012V18.5199C21.0018 19.7627 20.3326 20.3961 19.1496 20.3961H4.70199Z" fill="#E0E0E0"/>
<mask id="path-2-outside-1_1518_9743" maskUnits="userSpaceOnUse" x="3.92578" y="3.32001" width="16" height="16" fill="black">
<rect fill="white" x="3.92578" y="3.32001" width="16" height="16"/>
<path d="M5.60154 10.2561C5.99084 10.2561 6.26996 9.96256 6.26996 9.57368V8.95732L6.12305 6.39653L8.05485 8.42902L10.3172 10.7037C10.442 10.8357 10.6036 10.8944 10.7799 10.8944C11.1986 10.8944 11.5071 10.6229 11.5071 10.212C11.5071 10.0139 11.441 9.83783 11.3088 9.70575L9.03911 7.44579L7.00448 5.51602L9.57531 5.66277H10.185C10.5743 5.66277 10.8754 5.39129 10.8754 4.99506C10.8754 4.59883 10.5816 4.32001 10.185 4.32001H6.10836C5.35915 4.32001 4.92578 4.75292 4.92578 5.50135V9.57368C4.92578 9.95523 5.21225 10.2561 5.60154 10.2561ZM13.6593 18.32H17.7359C18.4851 18.32 18.9258 17.8871 18.9258 17.1387V13.0663C18.9258 12.6848 18.6393 12.3839 18.2427 12.3839C17.8607 12.3839 17.5743 12.6774 17.5743 13.0663V13.6827L17.7285 16.2435L15.7894 14.211L13.5344 11.9364C13.4095 11.8043 13.2406 11.7456 13.0643 11.7456C12.653 11.7456 12.3371 12.0171 12.3371 12.428C12.3371 12.6261 12.4106 12.8022 12.5428 12.9343L14.8051 15.1942L16.8471 17.124L14.2763 16.9772H13.6593C13.27 16.9772 12.9688 17.2487 12.9688 17.645C12.9688 18.0412 13.27 18.32 13.6593 18.32Z"/>
</mask>
<path d="M5.60154 10.2561C5.99084 10.2561 6.26996 9.96256 6.26996 9.57368V8.95732L6.12305 6.39653L8.05485 8.42902L10.3172 10.7037C10.442 10.8357 10.6036 10.8944 10.7799 10.8944C11.1986 10.8944 11.5071 10.6229 11.5071 10.212C11.5071 10.0139 11.441 9.83783 11.3088 9.70575L9.03911 7.44579L7.00448 5.51602L9.57531 5.66277H10.185C10.5743 5.66277 10.8754 5.39129 10.8754 4.99506C10.8754 4.59883 10.5816 4.32001 10.185 4.32001H6.10836C5.35915 4.32001 4.92578 4.75292 4.92578 5.50135V9.57368C4.92578 9.95523 5.21225 10.2561 5.60154 10.2561ZM13.6593 18.32H17.7359C18.4851 18.32 18.9258 17.8871 18.9258 17.1387V13.0663C18.9258 12.6848 18.6393 12.3839 18.2427 12.3839C17.8607 12.3839 17.5743 12.6774 17.5743 13.0663V13.6827L17.7285 16.2435L15.7894 14.211L13.5344 11.9364C13.4095 11.8043 13.2406 11.7456 13.0643 11.7456C12.653 11.7456 12.3371 12.0171 12.3371 12.428C12.3371 12.6261 12.4106 12.8022 12.5428 12.9343L14.8051 15.1942L16.8471 17.124L14.2763 16.9772H13.6593C13.27 16.9772 12.9688 17.2487 12.9688 17.645C12.9688 18.0412 13.27 18.32 13.6593 18.32Z" fill="#E0E0E0"/>
<path d="M6.26996 8.95732H6.47029L6.46963 8.94587L6.26996 8.95732ZM6.12305 6.39653L6.26802 6.25874L5.89213 5.86326L5.92338 6.40798L6.12305 6.39653ZM8.05485 8.42902L7.90984 8.56684L7.91304 8.57006L8.05485 8.42902ZM10.3172 10.7037L10.4626 10.5662L10.459 10.5626L10.3172 10.7037ZM11.3088 9.70575L11.4501 9.56426L11.4499 9.56403L11.3088 9.70575ZM9.03911 7.44579L9.18027 7.30403L9.17674 7.30068L9.03911 7.44579ZM7.00448 5.51602L7.01588 5.31635L6.4705 5.28522L6.86685 5.66114L7.00448 5.51602ZM9.57531 5.66277L9.56389 5.86277H9.57531V5.66277ZM17.5743 13.6827H17.3739L17.3746 13.6947L17.5743 13.6827ZM17.7285 16.2435L17.5838 16.3815L17.961 16.7769L17.9281 16.2315L17.7285 16.2435ZM15.7894 14.211L15.9341 14.0729L15.9314 14.0702L15.7894 14.211ZM13.5344 11.9364L13.389 12.0738L13.3924 12.0772L13.5344 11.9364ZM14.8051 15.1942L14.6637 15.3358L14.6677 15.3396L14.8051 15.1942ZM16.8471 17.124L16.8357 17.3237L17.3826 17.3549L16.9845 16.9786L16.8471 17.124ZM14.2763 16.9772L14.2877 16.7772H14.2763V16.9772ZM5.60154 10.4561C6.10681 10.4561 6.46996 10.0674 6.46996 9.57368H6.06996C6.06996 9.85771 5.87486 10.0561 5.60154 10.0561V10.4561ZM6.46996 9.57368V8.95732H6.06996V9.57368H6.46996ZM6.46963 8.94587L6.32272 6.38507L5.92338 6.40798L6.07029 8.96878L6.46963 8.94587ZM5.97809 6.53431L7.90988 8.56681L8.19981 8.29124L6.26802 6.25874L5.97809 6.53431ZM7.91304 8.57006L10.1754 10.8447L10.459 10.5626L8.19665 8.28798L7.91304 8.57006ZM10.1718 10.8411C10.3396 11.0185 10.5566 11.0944 10.7799 11.0944V10.6944C10.6507 10.6944 10.5445 10.6529 10.4625 10.5663L10.1718 10.8411ZM10.7799 11.0944C11.0324 11.0944 11.2647 11.0122 11.436 10.8544C11.6088 10.6953 11.7071 10.4703 11.7071 10.212H11.3071C11.3071 10.3647 11.2512 10.4809 11.165 10.5602C11.0774 10.6409 10.9461 10.6944 10.7799 10.6944V11.0944ZM11.7071 10.212C11.7071 9.96775 11.6245 9.73846 11.4501 9.56426L11.1674 9.84725C11.2575 9.93719 11.3071 10.0601 11.3071 10.212H11.7071ZM11.4499 9.56403L9.18023 7.30407L8.89799 7.58752L11.1677 9.84748L11.4499 9.56403ZM9.17674 7.30068L7.14211 5.37091L6.86685 5.66114L8.90147 7.5909L9.17674 7.30068ZM6.99308 5.7157L9.56391 5.86245L9.58671 5.4631L7.01588 5.31635L6.99308 5.7157ZM9.57531 5.86277H10.185V5.46277H9.57531V5.86277ZM10.185 5.86277C10.6743 5.86277 11.0754 5.51184 11.0754 4.99506H10.6754C10.6754 5.27074 10.4742 5.46277 10.185 5.46277V5.86277ZM11.0754 4.99506C11.0754 4.48251 10.6861 4.12001 10.185 4.12001V4.52001C10.4771 4.52001 10.6754 4.71515 10.6754 4.99506H11.0754ZM10.185 4.12001H6.10836V4.52001H10.185V4.12001ZM6.10836 4.12001C5.69558 4.12001 5.34359 4.23996 5.09477 4.48852C4.84592 4.73711 4.72578 5.08884 4.72578 5.50135H5.12578C5.12578 5.16543 5.22233 4.92649 5.37746 4.77151C5.53263 4.61651 5.77193 4.52001 6.10836 4.52001V4.12001ZM4.72578 5.50135V9.57368H5.12578V5.50135H4.72578ZM4.72578 9.57368C4.72578 10.0616 5.09774 10.4561 5.60154 10.4561V10.0561C5.32675 10.0561 5.12578 9.84886 5.12578 9.57368H4.72578ZM13.6593 18.52H17.7359V18.12H13.6593V18.52ZM17.7359 18.52C18.1486 18.52 18.502 18.4001 18.7525 18.1521C19.0033 17.9039 19.1258 17.5521 19.1258 17.1387H18.7258C18.7258 17.4737 18.6279 17.7126 18.4711 17.8679C18.3139 18.0234 18.0723 18.12 17.7359 18.12V18.52ZM19.1258 17.1387V13.0663H18.7258V17.1387H19.1258ZM19.1258 13.0663C19.1258 12.577 18.7524 12.1839 18.2427 12.1839V12.5839C18.5262 12.5839 18.7258 12.7926 18.7258 13.0663H19.1258ZM18.2427 12.1839C17.7462 12.1839 17.3743 12.5711 17.3743 13.0663H17.7743C17.7743 12.7838 17.9753 12.5839 18.2427 12.5839V12.1839ZM17.3743 13.0663V13.6827H17.7743V13.0663H17.3743ZM17.3746 13.6947L17.5289 16.2555L17.9281 16.2315L17.7739 13.6707L17.3746 13.6947ZM17.8732 16.1054L15.9341 14.0729L15.6447 14.3491L17.5838 16.3815L17.8732 16.1054ZM15.9314 14.0702L13.6764 11.7956L13.3924 12.0772L15.6473 14.3518L15.9314 14.0702ZM13.6797 11.799C13.5105 11.6199 13.2851 11.5456 13.0643 11.5456V11.9456C13.196 11.9456 13.3086 11.9886 13.3891 12.0738L13.6797 11.799ZM13.0643 11.5456C12.5597 11.5456 12.1371 11.8902 12.1371 12.428H12.5371C12.5371 12.144 12.7462 11.9456 13.0643 11.9456V11.5456ZM12.1371 12.428C12.1371 12.6778 12.2307 12.9052 12.4014 13.0758L12.6841 12.7928C12.5904 12.6992 12.5371 12.5744 12.5371 12.428H12.1371ZM12.4014 13.0758L14.6638 15.3357L14.9465 15.0527L12.6841 12.7928L12.4014 13.0758ZM14.6677 15.3396L16.7097 17.2693L16.9845 16.9786L14.9425 15.0489L14.6677 15.3396ZM16.8585 16.9243L14.2877 16.7776L14.2649 17.1769L16.8357 17.3237L16.8585 16.9243ZM14.2763 16.7772H13.6593V17.1772H14.2763V16.7772ZM13.6593 16.7772C13.1699 16.7772 12.7688 17.1282 12.7688 17.645H13.1688C13.1688 17.3693 13.37 17.1772 13.6593 17.1772V16.7772ZM12.7688 17.645C12.7688 18.1589 13.1669 18.52 13.6593 18.52V18.12C13.373 18.12 13.1688 17.9235 13.1688 17.645H12.7688Z" fill="#E0E0E0" mask="url(#path-2-outside-1_1518_9743)"/>
</svg>
