<svg width="26" height="26" viewBox="0 0 26 26" fill="none" xmlns="http://www.w3.org/2000/svg">
<path d="M12.5106 23.8235C12.7993 23.8235 13.0768 23.7902 13.3765 23.768L14.0093 24.9891C14.1314 25.2333 14.3756 25.3666 14.6865 25.3222C14.964 25.2667 15.1527 25.0668 15.1971 24.7671L15.3858 23.4238C15.9409 23.2795 16.4849 23.0686 17.0066 22.8355L18.0057 23.7347C18.2167 23.9345 18.4831 23.9789 18.7606 23.8235C19.0048 23.6903 19.1048 23.4238 19.0493 23.1352L18.7717 21.8031C19.238 21.4811 19.6931 21.1148 20.1039 20.704L21.3361 21.2258C21.6136 21.3368 21.8801 21.2813 22.091 21.026C22.2797 20.8262 22.3019 20.5375 22.1354 20.2933L21.4138 19.1388C21.7469 18.6725 22.0133 18.173 22.2686 17.6401L23.6341 17.7067C23.9227 17.7178 24.1558 17.5624 24.2557 17.2849C24.3445 17.0073 24.2668 16.7409 24.0337 16.5633L22.968 15.7196C23.1123 15.1867 23.2233 14.6095 23.2788 14.01L24.5555 13.6103C24.8441 13.5104 25.0106 13.2995 25.0106 12.9998C25.0106 12.7111 24.8441 12.5002 24.5555 12.4003L23.2788 11.9896C23.2233 11.3901 23.1123 10.835 22.968 10.2911L24.0337 9.43628C24.2557 9.26976 24.3445 9.01443 24.2557 8.7369C24.1558 8.45937 23.9227 8.30395 23.6341 8.31505L22.2686 8.37056C22.0133 7.8377 21.7469 7.33815 21.4138 6.87189L22.1354 5.71736C22.2908 5.48424 22.2686 5.19561 22.091 4.99578C21.8801 4.74045 21.6136 4.67385 21.3361 4.79596L20.1039 5.29552C19.6931 4.90697 19.238 4.52953 18.7717 4.20759L19.0493 2.88655C19.1048 2.58681 19.0048 2.32038 18.7606 2.18717C18.4831 2.04285 18.2167 2.06505 18.0057 2.28708L17.0066 3.16408C16.4849 2.93095 15.9409 2.74223 15.3858 2.58681L15.1971 1.24356C15.1527 0.954931 14.9529 0.744007 14.6754 0.699602C14.3756 0.655197 14.1314 0.777311 14.0093 1.02154L13.3765 2.24267C13.0768 2.22047 12.7993 2.19827 12.5106 2.19827C12.2109 2.19827 11.9445 2.22047 11.6447 2.24267L11.0009 1.02154C10.8787 0.777311 10.6345 0.655197 10.3348 0.699602C10.0572 0.744007 9.85742 0.954931 9.82412 1.24356L9.6243 2.57571C9.06923 2.74223 8.53637 2.93095 8.00352 3.16408L7.0044 2.28708C6.79348 2.06505 6.52705 2.04285 6.24952 2.18717C6.00529 2.32038 5.90538 2.58681 5.96089 2.88655L6.23842 4.20759C5.78327 4.52953 5.31701 4.90697 4.90627 5.29552L3.67403 4.79596C3.3965 4.67385 3.14117 4.74045 2.93025 4.99578C2.74153 5.19561 2.71932 5.48424 2.87474 5.70626L3.59632 6.87189C3.27439 7.33815 2.99685 7.8377 2.74153 8.37056L1.38717 8.31505C1.09854 8.30395 0.854315 8.45937 0.754403 8.7369C0.665593 9.01443 0.743302 9.26976 0.976428 9.43628L2.04215 10.2911C1.89783 10.835 1.78682 11.3901 1.75352 11.9896L0.45467 12.4003C0.166038 12.4891 0.0106201 12.7 0.0106201 12.9998C0.0106201 13.2995 0.166038 13.5104 0.45467 13.6103L1.75352 14.0211C1.78682 14.6095 1.89783 15.1867 2.04215 15.7196L0.976428 16.5633C0.754403 16.7409 0.676695 17.0073 0.754403 17.2849C0.854315 17.5624 1.09854 17.7178 1.38717 17.7067L2.74153 17.6401C2.99685 18.173 3.27439 18.6725 3.59632 19.1388L2.87474 20.2933C2.71932 20.5375 2.74153 20.8262 2.93025 21.026C3.14117 21.2813 3.3965 21.3368 3.67403 21.2258L4.90627 20.704C5.31701 21.1148 5.78327 21.4811 6.23842 21.8031L5.96089 23.1352C5.90538 23.4238 6.00529 23.6903 6.24952 23.8235C6.52705 23.9789 6.79348 23.9345 7.0044 23.7347L8.00352 22.8355C8.53637 23.0686 9.06923 23.2795 9.6243 23.4238L9.82412 24.7671C9.85742 25.0668 10.0572 25.2667 10.3348 25.3222C10.6345 25.3666 10.8787 25.2333 11.0009 24.9891L11.6447 23.768C11.9334 23.7902 12.2109 23.8235 12.5106 23.8235ZM15.297 12.3004C14.7864 10.9016 13.754 10.1357 12.4884 10.1357C12.2886 10.1357 12.0777 10.1579 11.7113 10.2356L8.52527 4.79596C9.72421 4.20759 11.0675 3.88566 12.5106 3.88566C17.3508 3.88566 21.1474 7.56017 21.5026 12.3004H15.297ZM3.49641 13.0109C3.49641 9.92474 4.96177 7.20493 7.24863 5.56195L10.468 11.0349C9.85742 11.6565 9.57989 12.3337 9.57989 13.0553C9.57989 13.7547 9.84632 14.3985 10.4569 15.0424L7.18202 20.4154C4.92847 18.7613 3.49641 16.0748 3.49641 13.0109ZM11.1563 13.0442C11.1563 12.2893 11.789 11.7009 12.5106 11.7009C13.2544 11.7009 13.8761 12.2893 13.8761 13.0442C13.8761 13.788 13.2544 14.3985 12.5106 14.3985C11.789 14.3985 11.1563 13.788 11.1563 13.0442ZM12.5106 22.1361C11.0342 22.1361 9.6576 21.792 8.44757 21.1925L11.7113 15.8528C12.0555 15.9416 12.2886 15.9638 12.4884 15.9638C13.7651 15.9638 14.7975 15.1756 15.297 13.7436H21.4915C21.1363 18.4616 17.3508 22.1361 12.5106 22.1361Z" fill="black"/>
</svg>
