<svg width="26" height="25" viewBox="0 0 26 25" fill="none" xmlns="http://www.w3.org/2000/svg">
<path d="M13.4258 23.1329C13.7144 23.1329 13.9919 23.0996 14.2917 23.0774L14.9244 24.2985C15.0466 24.5427 15.2908 24.676 15.6016 24.6315C15.8792 24.576 16.0679 24.3762 16.1123 24.0765L16.301 22.7332C16.8561 22.5889 17.4 22.378 17.9218 22.1449L18.9209 23.0441C19.1318 23.2439 19.3983 23.2883 19.6758 23.1329C19.92 22.9997 20.0199 22.7332 19.9644 22.4446L19.6869 21.1125C20.1531 20.7905 20.6083 20.4242 21.019 20.0134L22.2513 20.5352C22.5288 20.6462 22.7952 20.5907 23.0062 20.3354C23.1949 20.1355 23.2171 19.8469 23.0506 19.6027L22.329 18.4482C22.662 17.9819 22.9284 17.4823 23.1838 16.9495L24.5492 17.0161C24.8379 17.0272 25.071 16.8718 25.1709 16.5942C25.2597 16.3167 25.182 16.0503 24.9489 15.8727L23.8832 15.029C24.0275 14.4961 24.1385 13.9188 24.194 13.3194L25.4706 12.9197C25.7593 12.8198 25.9258 12.6089 25.9258 12.3092C25.9258 12.0205 25.7593 11.8096 25.4706 11.7097L24.194 11.299C24.1385 10.6995 24.0275 10.1444 23.8832 9.60046L24.9489 8.74567C25.1709 8.57915 25.2597 8.32382 25.1709 8.04629C25.071 7.76876 24.8379 7.61334 24.5492 7.62444L23.1838 7.67995C22.9284 7.14709 22.662 6.64753 22.329 6.18128L23.0506 5.02675C23.206 4.79362 23.1838 4.50499 23.0062 4.30517C22.7952 4.04984 22.5288 3.98323 22.2513 4.10535L21.019 4.6049C20.6083 4.21636 20.1531 3.83892 19.6869 3.51698L19.9644 2.19593C20.0199 1.8962 19.92 1.62977 19.6758 1.49656C19.3983 1.35224 19.1318 1.37444 18.9209 1.59647L17.9218 2.47347C17.4 2.24034 16.8561 2.05162 16.301 1.8962L16.1123 0.55295C16.0679 0.264318 15.8681 0.0533941 15.5905 0.00898916C15.2908 -0.0354158 15.0466 0.0866979 14.9244 0.330925L14.2917 1.55206C13.9919 1.52986 13.7144 1.50766 13.4258 1.50766C13.126 1.50766 12.8596 1.52986 12.5599 1.55206L11.916 0.330925C11.7939 0.0866979 11.5497 -0.0354158 11.2499 0.00898916C10.9724 0.0533941 10.7726 0.264318 10.7393 0.55295L10.5395 1.8851C9.9844 2.05162 9.45154 2.24034 8.91868 2.47347L7.91956 1.59647C7.70864 1.37444 7.44221 1.35224 7.16468 1.49656C6.92045 1.62977 6.82054 1.8962 6.87605 2.19593L7.15358 3.51698C6.69843 3.83892 6.23218 4.21636 5.82143 4.6049L4.58919 4.10535C4.31166 3.98323 4.05633 4.04984 3.84541 4.30517C3.65669 4.50499 3.63448 4.79362 3.7899 5.01565L4.51148 6.18128C4.18955 6.64753 3.91202 7.14709 3.65669 7.67995L2.30234 7.62444C2.0137 7.61334 1.76948 7.76876 1.66956 8.04629C1.58075 8.32382 1.65846 8.57915 1.89159 8.74567L2.95731 9.60046C2.81299 10.1444 2.70198 10.6995 2.66868 11.299L1.36983 11.7097C1.0812 11.7985 0.925781 12.0094 0.925781 12.3092C0.925781 12.6089 1.0812 12.8198 1.36983 12.9197L2.66868 13.3305C2.70198 13.9188 2.81299 14.4961 2.95731 15.029L1.89159 15.8727C1.66956 16.0503 1.59186 16.3167 1.66956 16.5942C1.76948 16.8718 2.0137 17.0272 2.30234 17.0161L3.65669 16.9495C3.91202 17.4823 4.18955 17.9819 4.51148 18.4482L3.7899 19.6027C3.63448 19.8469 3.65669 20.1355 3.84541 20.3354C4.05633 20.5907 4.31166 20.6462 4.58919 20.5352L5.82143 20.0134C6.23218 20.4242 6.69843 20.7905 7.15358 21.1125L6.87605 22.4446C6.82054 22.7332 6.92045 22.9997 7.16468 23.1329C7.44221 23.2883 7.70864 23.2439 7.91956 23.0441L8.91868 22.1449C9.45154 22.378 9.9844 22.5889 10.5395 22.7332L10.7393 24.0765C10.7726 24.3762 10.9724 24.576 11.2499 24.6315C11.5497 24.676 11.7939 24.5427 11.916 24.2985L12.5599 23.0774C12.8485 23.0996 13.126 23.1329 13.4258 23.1329ZM16.2122 11.6098C15.7015 10.211 14.6691 9.44505 13.4036 9.44505C13.2038 9.44505 12.9928 9.46725 12.6265 9.54496L9.44043 4.10535C10.6394 3.51698 11.9826 3.19505 13.4258 3.19505C18.2659 3.19505 22.0625 6.86956 22.4178 11.6098H16.2122ZM4.41157 12.3203C4.41157 9.23412 5.87694 6.51432 8.16379 4.87133L11.3832 10.3442C10.7726 10.9659 10.4951 11.6431 10.4951 12.3647C10.4951 13.0641 10.7615 13.7079 11.3721 14.3518L8.09718 19.7248C5.84363 18.0707 4.41157 15.3842 4.41157 12.3203ZM12.0714 12.3536C12.0714 11.5987 12.7042 11.0103 13.4258 11.0103C14.1696 11.0103 14.7912 11.5987 14.7912 12.3536C14.7912 13.0974 14.1696 13.7079 13.4258 13.7079C12.7042 13.7079 12.0714 13.0974 12.0714 12.3536ZM13.4258 21.4455C11.9493 21.4455 10.5728 21.1014 9.36273 20.5019L12.6265 15.1622C12.9706 15.251 13.2038 15.2732 13.4036 15.2732C14.6802 15.2732 15.7126 14.485 16.2122 13.0529H22.4067C22.0514 17.771 18.2659 21.4455 13.4258 21.4455Z" fill="#E0E0E0"/>
</svg>
