<svg width="22" height="22" viewBox="0 0 22 22" fill="none" xmlns="http://www.w3.org/2000/svg">
<path d="M3.75231 22H18.2477C20.7572 22 22 20.7572 22 18.2955V3.70451C22 1.2428 20.7572 0 18.2477 0H3.75231C1.25475 0 0 1.23085 0 3.70451V18.2955C0 20.7691 1.25475 22 3.75231 22ZM3.77621 20.076C2.58121 20.076 1.92395 19.4427 1.92395 18.1999V3.80011C1.92395 2.55731 2.58121 1.92395 3.77621 1.92395H18.2238C19.4068 1.92395 20.076 2.55731 20.076 3.80011V18.1999C20.076 19.4427 19.4068 20.076 18.2238 20.076H3.77621Z" fill="#E0E0E0"/>
</svg>
