<svg width="28" height="28" viewBox="0 0 28 28" fill="none" xmlns="http://www.w3.org/2000/svg">
<path fill-rule="evenodd" clip-rule="evenodd" d="M1.29289 27.2929C0.902369 26.9024 0.902369 26.2692 1.29289 25.8787L3.56261 23.609C3.18777 23.0233 3 22.2524 3 21.2955V6.70451C3 4.23085 4.25475 3 6.75231 3H21.2477C22.226 3 23.0117 3.18886 23.6064 3.56516L25.8787 1.29289C26.2692 0.902369 26.9024 0.902369 27.2929 1.29289C27.6834 1.68342 27.6834 2.31658 27.2929 2.70711L24.802 5.19802C24.8022 5.19876 24.8024 5.19951 24.8027 5.20025L23.076 6.92573V6.92395L20.3591 9.64094L2.61031 27.3781C2.21811 27.681 1.65258 27.6526 1.29289 27.2929ZM7.81931 25H21.2477C23.7572 25 25 23.7572 25 21.2955V7.83054L23.076 9.75323V21.1999C23.076 22.4427 22.4068 23.076 21.2238 23.076H9.74452L7.81931 25ZM5.07469 22.0969L22.0975 5.07408C21.8493 4.97418 21.5569 4.92396 21.2238 4.92396H6.77621C5.58121 4.92396 4.92395 5.55731 4.92395 6.80011V21.1999C4.92395 21.5465 4.97506 21.8456 5.07469 22.0969Z" fill="black"/>
</svg>
